<?xml version="1.0" standalone="no"?>
<!DOCTYPE svg PUBLIC "-//W3C//DTD SVG 20010904//EN"
 "http://www.w3.org/TR/2001/REC-SVG-20010904/DTD/svg10.dtd">
<svg version="1.0" xmlns="http://www.w3.org/2000/svg"
 width="335.000000pt" height="319.000000pt" viewBox="0 0 335.000000 319.000000"
 preserveAspectRatio="xMidYMid meet">

<g transform="translate(0.000000,319.000000) scale(0.100000,-0.100000)"
fill="#000000" stroke="none">
<path d="M0 1595 l0 -1595 1675 0 1675 0 0 1595 0 1595 -1675 0 -1675 0 0
-1595z m1876 1326 c317 -65 605 -234 793 -465 210 -259 312 -521 328 -842 6
-131 1 -174 -22 -174 -12 0 -15 19 -15 103 0 57 -3 145 -7 196 -5 77 -9 91
-22 88 -9 -2 -15 -9 -13 -15 1 -7 -2 -12 -8 -12 -5 0 -10 5 -10 10 0 14 -32
12 -52 -4 -14 -11 -18 -34 -21 -137 -2 -92 -3 -73 -5 74 -1 116 2 196 7 193 5
-4 7 19 4 52 -3 36 -1 67 6 81 14 25 7 43 -13 35 -8 -3 -17 -24 -21 -47 -4
-23 -9 -46 -10 -52 -1 -5 -3 -58 -3 -117 l-2 -108 -30 0 c-16 0 -30 5 -30 10
0 18 -29 10 -44 -12 -15 -22 -16 -21 -16 24 0 38 -3 46 -15 42 -10 -4 -15 -21
-15 -53 0 -41 -11 -129 -26 -201 -13 -66 -24 -149 -24 -191 0 -49 -18 -99 -36
-99 -6 0 -19 10 -27 23 -13 18 -16 19 -16 5 -1 -10 -6 -18 -11 -18 -7 0 -9 42
-5 118 2 64 5 127 5 140 0 13 6 22 15 22 8 0 15 5 15 10 0 15 -42 11 -64 -5
-11 -8 -28 -15 -37 -15 -15 0 -18 17 -24 140 -4 77 -11 140 -15 140 -3 0 -5
-15 -3 -32 2 -18 1 -28 -1 -23 -6 15 -24 87 -31 117 -4 22 -10 27 -30 26 -29
-3 -32 -19 -41 -280 -4 -104 -9 -188 -12 -188 -10 0 -148 115 -187 157 -39 40
-97 73 -129 73 -10 0 -21 -18 -29 -47 -17 -57 -42 -78 -60 -48 -7 11 -15 34
-18 50 l-6 30 -2 -35 c-1 -40 -30 -120 -42 -120 -5 0 -9 -6 -9 -13 0 -8 -11
-20 -25 -27 -15 -8 -30 -29 -36 -51 -8 -25 -16 -36 -26 -32 -7 3 -23 -6 -34
-21 -11 -14 -25 -26 -30 -26 -21 0 -48 37 -55 74 -6 32 -3 42 12 53 15 11 16
15 5 22 -7 5 -23 7 -35 4 -21 -4 -21 -4 -2 11 11 9 34 17 50 17 24 1 20 4 -21
13 -28 6 -54 13 -57 16 -6 7 -46 203 -46 229 0 25 9 27 25 5 9 -13 16 -14 33
-5 14 7 23 8 27 1 3 -5 2 -10 -4 -10 -5 0 -13 -9 -16 -21 -9 -28 36 -69 76
-69 26 0 29 3 23 24 -5 23 17 43 36 31 5 -3 11 -1 15 5 3 6 -4 10 -18 10 -29
0 -52 24 -43 45 3 10 19 15 43 15 33 1 35 2 19 12 -11 6 -55 10 -98 10 l-78
-1 15 29 c15 29 20 91 9 103 -3 3 -17 2 -30 -3 -33 -13 -30 -1 11 39 19 19 32
38 29 43 -6 10 39 28 71 28 14 0 45 -15 69 -32 44 -33 66 -70 66 -114 0 -13
11 -40 25 -60 14 -20 25 -51 26 -68 1 -17 5 -42 9 -56 8 -24 8 -24 9 6 1 22 8
34 25 42 22 10 23 13 14 54 -41 180 -79 252 -152 287 -25 13 -49 27 -52 33
-12 19 -201 98 -235 98 -29 0 -108 -40 -119 -60 -6 -11 -25 -23 -43 -28 -22
-5 -37 -18 -49 -41 -9 -19 -29 -47 -45 -63 -27 -28 -28 -33 -27 -119 1 -49 10
-129 20 -179 18 -87 18 -90 -1 -103 -18 -14 -18 -16 0 -68 10 -31 18 -77 16
-108 -2 -70 -36 -110 -93 -111 -21 0 -38 5 -38 11 0 5 5 7 11 3 8 -4 8 -1 1
12 -11 21 -14 72 -16 227 -1 92 -3 108 -18 113 -25 7 -61 -14 -54 -33 4 -10
-1 -17 -15 -20 -22 -6 -22 -9 -16 -154 4 -91 2 -151 -3 -154 -6 -4 -10 -60
-10 -125 0 -65 -4 -121 -9 -124 -5 -3 -21 0 -36 8 -18 9 -36 11 -55 6 -27 -8
-28 -6 -32 28 -3 21 -2 38 2 40 13 5 1 185 -12 194 -8 4 4 8 30 8 23 0 42 5
42 10 0 6 -7 10 -15 10 -10 0 -15 10 -15 28 0 31 -29 64 -60 69 -18 3 -20 -3
-20 -71 0 -47 -5 -77 -13 -84 -7 -6 -32 -9 -57 -6 -25 2 -50 1 -57 -4 -16 -10
-5 -50 16 -55 13 -4 11 -6 -6 -12 -18 -6 -23 -15 -23 -41 0 -39 21 -54 74 -54
34 0 36 -2 36 -34 0 -31 -2 -33 -27 -28 -15 3 -34 11 -41 19 -8 7 -18 10 -24
7 -7 -5 -9 0 -6 14 4 13 0 23 -9 26 -25 10 -30 7 -26 -18 4 -20 0 -24 -28 -28
-46 -7 -69 1 -69 23 0 11 5 19 10 19 6 0 8 26 5 69 -5 60 -3 71 12 80 15 9 13
10 -14 11 -17 0 -44 8 -60 17 -28 16 -30 16 -51 -5 -12 -12 -28 -22 -36 -22
-17 0 -76 66 -76 85 0 31 -21 24 -36 -11 -23 -54 -34 -28 -34 81 -1 617 384
1147 970 1338 64 21 177 44 295 61 69 10 295 -3 391 -23z m1037 -1201 c-7 -28
-13 -25 -13 6 0 14 4 23 9 20 5 -3 7 -15 4 -26z m-233 -22 c0 -21 -3 -29 -10
-22 -5 5 -7 19 -4 32 9 31 14 27 14 -10z m227 -45 c-3 -10 -5 -4 -5 12 0 17 2
24 5 18 2 -7 2 -21 0 -30z m0 -70 c-3 -10 -5 -2 -5 17 0 19 2 27 5 18 2 -10 2
-26 0 -35z m-162 -56 c11 -56 2 -111 -17 -115 -16 -3 -18 6 -18 72 0 60 3 76
15 76 8 0 17 -14 20 -33z m38 -30 c3 -8 1 -20 -4 -28 -6 -10 -9 -7 -9 14 0 29
5 35 13 14z m-131 -71 c2 -19 1 -43 -3 -53 -6 -15 -8 -14 -9 7 -2 14 -2 29 -1
34 1 5 -3 12 -10 16 -6 4 -8 13 -5 19 13 20 24 11 28 -23z m-2356 -11 c10 -21
14 -45 10 -61 -4 -14 -3 -23 1 -21 4 3 6 -15 4 -40 -2 -35 0 -44 10 -41 9 3
13 17 11 41 -3 34 -1 37 23 37 26 0 26 -2 20 -40 -4 -26 -3 -40 4 -40 6 0 11
9 11 20 0 11 5 20 10 20 6 0 10 -20 10 -44 0 -38 -4 -46 -22 -52 -24 -7 -108
-7 -116 1 -3 2 -6 26 -8 52 -2 25 -8 51 -14 57 -20 20 -11 37 16 30 19 -5 25
-4 20 5 -4 6 -13 11 -21 11 -8 0 -16 4 -19 8 -7 12 15 92 25 92 4 0 16 -16 25
-35z m768 -30 c22 -17 66 -20 66 -5 0 11 30 13 54 4 23 -9 20 -22 -14 -61 -16
-18 -30 -45 -30 -58 0 -18 -10 -29 -38 -44 -20 -10 -48 -21 -62 -22 l-25 -4
-3 103 c-3 93 -2 102 15 102 10 0 27 -7 37 -15z m-267 -37 c-3 -8 -6 -5 -6 6
-1 11 2 17 5 13 3 -3 4 -12 1 -19z m963 -91 c-38 -62 -110 -137 -129 -137 -5
0 -11 10 -14 23 -3 12 -9 32 -12 45 -6 16 -3 22 8 22 24 0 139 70 161 97 35
46 27 14 -14 -50z m628 34 c9 -5 30 -14 45 -20 15 -6 25 -15 22 -21 -3 -5 -1
-18 4 -29 9 -16 7 -20 -14 -25 -14 -4 -25 -11 -25 -17 0 -15 -96 -1 -157 23
-56 22 -62 28 -38 48 8 7 15 21 15 31 0 17 8 19 65 19 36 0 73 -4 83 -9z m181
-17 c2 -2 -17 -4 -43 -4 -27 0 -45 4 -41 9 5 9 73 4 84 -5z m64 -1 c-7 -2 -19
-2 -25 0 -7 3 -2 5 12 5 14 0 19 -2 13 -5z m-2143 -251 c0 -4 11 -9 25 -10 14
-1 25 3 25 8 0 6 16 10 36 10 24 0 33 -4 28 -11 -5 -9 13 -11 68 -7 l75 5 -19
-34 c-11 -18 -25 -36 -31 -40 -6 -3 -7 -1 -3 5 5 8 -3 12 -26 12 -26 0 -30 -3
-18 -11 12 -8 10 -9 -7 -4 -38 11 -198 4 -238 -9 -14 -5 -39 14 -53 41 -17 32
-16 33 28 33 22 0 40 4 40 8 0 5 16 9 35 10 19 1 35 -2 35 -6z m2095 -22 c-27
-12 -35 -12 -35 0 0 6 12 10 28 9 24 0 25 -1 7 -9z m162 3 c-20 -2 -52 -2 -70
0 -17 2 0 4 38 4 39 0 53 -2 32 -4z m-2250 -93 c94 0 110 -7 25 -11 -29 -2
-55 -6 -58 -11 -3 -5 29 -7 70 -5 44 3 76 1 76 -5 0 -5 4 -6 10 -3 18 11 50
14 50 4 0 -19 -50 -109 -61 -109 -5 0 -7 -4 -4 -10 6 -10 -28 -85 -43 -94 -5
-3 -35 29 -66 71 -53 71 -56 78 -40 90 16 12 16 13 -8 13 -27 0 -46 25 -25 34
7 2 4 5 -5 5 -10 1 -22 11 -29 23 -10 18 -9 20 6 15 9 -4 55 -7 102 -7z m2170
4 c-3 -3 -12 -4 -19 -1 -8 3 -5 6 6 6 11 1 17 -2 13 -5z m-27 -114 c0 -5 -6
-10 -12 -10 -9 0 -8 -4 2 -10 8 -5 10 -10 5 -10 -13 0 -35 20 -35 32 0 4 9 8
20 8 11 0 20 -4 20 -10z m68 -7 c-10 -2 -28 -2 -40 0 -13 2 -5 4 17 4 22 1 32
-1 23 -4z m-53 -43 c19 -8 19 -9 -2 -9 -12 -1 -25 4 -28 9 -7 12 2 12 30 0z
m18 -67 c-7 -2 -19 -2 -25 0 -7 3 -2 5 12 5 14 0 19 -2 13 -5z m-1346 -35 c-3
-8 -6 -5 -6 6 -1 11 2 17 5 13 3 -3 4 -12 1 -19z m903 -33 c0 -10 -11 -15 -35
-15 -24 0 -35 5 -35 15 0 10 11 15 35 15 24 0 35 -5 35 -15z m-880 -168 c0
-10 -4 -15 -10 -12 -5 3 -10 18 -10 33 0 21 2 24 10 12 5 -8 10 -23 10 -33z"/>
<path d="M1079 2070 c-9 -23 2 -50 20 -50 10 0 12 3 5 8 -7 4 -14 18 -16 32
-2 17 -5 20 -9 10z"/>
<path d="M1090 1956 c-6 -9 -10 -21 -7 -28 4 -9 6 -7 6 4 1 9 7 18 14 21 6 2
9 7 6 11 -3 4 -12 0 -19 -8z"/>
<path d="M2671 1874 c0 -11 3 -14 6 -6 3 7 2 16 -1 19 -3 4 -6 -2 -5 -13z"/>
<path d="M1080 1809 c0 -69 5 -75 13 -14 2 22 6 46 8 54 2 7 -2 16 -8 18 -10
3 -13 -12 -13 -58z"/>
<path d="M1928 1785 c2 -19 8 -35 13 -35 14 0 11 46 -4 58 -10 9 -12 4 -9 -23z"/>
<path d="M1866 1742 c-6 -12 6 -72 15 -72 12 0 31 39 27 57 -3 16 -35 27 -42
15z"/>
<path d="M1653 1688 c-38 -18 -36 -49 6 -93 21 -22 43 -49 49 -60 22 -40 14
23 -9 66 -11 23 -21 54 -21 70 -1 16 -1 29 -2 28 -1 0 -11 -5 -23 -11z"/>
<path d="M852 1559 c2 -6 8 -10 13 -10 5 0 11 4 13 10 2 6 -4 11 -13 11 -9 0
-15 -5 -13 -11z"/>
<path d="M1657 1539 c4 -13 0 -19 -11 -19 -10 0 -14 -5 -11 -10 4 -6 11 -7 17
-4 6 4 14 0 19 -7 14 -23 33 4 20 29 -15 28 -40 36 -34 11z"/>
<path d="M566 1415 c10 -8 25 -15 33 -15 11 0 9 4 -5 15 -10 8 -25 15 -33 15
-11 0 -9 -4 5 -15z"/>
</g>
</svg>
